<svg width="58" height="54" viewBox="0 0 58 54" fill="none" xmlns="http://www.w3.org/2000/svg">
<path fill-rule="evenodd" clip-rule="evenodd" d="M19.3955 3.4983C21.6016 1.23105 24.8692 0 29.1011 0C33.433 0 36.7062 1.22748 38.8894 3.50341C41.0651 5.77139 42.0171 8.93362 42.0171 12.52V18.8209C43.7626 21.3709 43.2323 24.8066 41.0155 26.6776C40.1446 29.7841 38.7378 32.5015 36.9341 34.5469V36.9433C37.0021 37.091 37.139 37.3017 37.3912 37.5746C37.7037 37.9127 38.1432 38.2931 38.7099 38.7101C39.8432 39.5441 41.3975 40.461 43.2389 41.421C46.9161 43.3383 51.6193 45.367 56.1037 47.1866C57.2731 47.6622 58 48.8308 58 50.0824V53.2H56V50.0824C56 49.5844 55.7127 49.1866 55.351 49.0395C50.8524 47.2142 46.0782 45.157 42.3142 43.1945C40.4348 42.2146 38.7775 41.243 37.5245 40.321C36.898 39.86 36.3508 39.3955 35.9224 38.932C35.503 38.4782 35.1422 37.9664 34.9755 37.4055L34.9341 37.2661V33.768L35.2022 33.48C36.933 31.6209 38.3346 28.983 39.1711 25.8402L39.2614 25.5009L39.544 25.2925C41.1803 24.0861 41.6136 21.5494 40.2264 19.7581L40.0171 19.4877V12.52C40.0171 9.26818 39.156 6.67041 37.4461 4.88794C35.7439 3.11342 33.059 2 29.1011 2C25.2567 2 22.564 3.10985 20.8289 4.89305C19.0884 6.68187 18.1806 9.28264 18.1806 12.52V19.4894L17.9714 19.7596C16.588 21.5471 17.0194 24.0829 18.6546 25.2914L18.9365 25.4998L19.0266 25.8386C19.8628 28.9827 21.2653 31.6189 22.9976 33.4801L23.2656 33.7681V37.2658L23.2243 37.405C23.0579 37.966 22.6971 38.4775 22.2779 38.931C21.8497 39.3942 21.3025 39.8585 20.6761 40.3193C19.4233 41.241 17.7659 42.2124 15.8864 43.1924C12.1223 45.1551 7.34769 47.2132 2.8494 49.0393C2.4855 49.189 2.2 49.5865 2.2 50.0824V53.2H0.199997V50.0824C0.199997 48.8294 0.927118 47.6649 2.09358 47.1877L2.09608 47.1866C6.5804 45.3661 11.2841 43.3366 14.9618 41.419C16.8032 40.4588 18.3577 39.542 19.4909 38.7083C20.0575 38.2914 20.4969 37.9112 20.8093 37.5733C21.0612 37.3008 21.1978 37.0906 21.2656 36.9435V34.5469C19.4609 32.5002 18.0529 29.7841 17.1819 26.6752C14.9684 24.8031 14.4385 21.3698 16.1806 18.8229V12.52C16.1806 8.91917 17.1949 5.75993 19.3955 3.4983Z" fill="white"/>
</svg>
